<?xml version="1.0" encoding="UTF-8"?>
<svg id="Ebene_2" data-name="Ebene 2" xmlns="http://www.w3.org/2000/svg" viewBox="0 0 720.7 333.2">
  <defs>
    <style>
      .cls-1 {
        fill: #be123c;
      }

      .cls-2 {
        fill: #fff;
      }
    </style>
  </defs>
  <g id="Ebene_2-2" data-name="Ebene 2">
    <g id="uuid-743d9ef5-1a45-4459-bf09-a8f7ee33e190" data-name="Ebene 2-2">
      <g id="Logo_1" data-name="Logo 1">
        <g>
          <g>
            <path class="cls-1" d="M16.01,182.5c-3.5,0-6.46-.75-8.88-2.25s-4.21-3.79-5.38-6.88c-1.17-3.08-1.75-6.96-1.75-11.62V0h13v163.25c0,2.84.5,4.88,1.5,6.12s2.25,1.88,3.75,1.88c.5,0,1.08-.04,1.75-.12.66-.08,1.58-.21,2.75-.38l2,10.25c-1.17.33-2.42.66-3.75,1-1.34.33-3,.5-5,.5h.01Z"/>
            <path class="cls-1" d="M106.26,182.5c-10.34,0-19.75-2.5-28.25-7.5s-15.25-12.21-20.25-21.62-7.5-20.71-7.5-33.88,2.5-24.25,7.5-33.75,11.54-16.79,19.62-21.88c8.08-5.08,16.62-7.62,25.62-7.62,9.66,0,17.96,2.21,24.88,6.62,6.91,4.42,12.25,10.79,16,19.12,3.75,8.34,5.62,18.34,5.62,30,0,1.5-.04,3.09-.12,4.75-.09,1.67-.29,3.25-.62,4.75H60.01v-10.25h77.5c0-14.66-3.09-25.71-9.25-33.12-6.17-7.41-14.59-11.12-25.25-11.12-6.5,0-12.84,1.88-19,5.62-6.17,3.75-11.25,9.5-15.25,17.25s-6,17.62-6,29.62c0,11.17,2.04,20.59,6.12,28.25,4.08,7.67,9.46,13.59,16.12,17.75,6.66,4.17,14.16,6.25,22.5,6.25,6.5,0,12.33-1,17.5-3,5.16-2,10-4.5,14.5-7.5l5,9.25c-4.84,3-10.25,5.75-16.25,8.25s-13.34,3.75-22,3.75h.01Z"/>
            <path class="cls-1" d="M204.01,182.5c-6.34,0-12.17-1.21-17.5-3.62-5.34-2.41-9.54-6.08-12.62-11-3.09-4.91-4.62-11.12-4.62-18.62,0-13.16,6.16-23.25,18.5-30.25,12.33-7,31.75-12,58.25-15,.16-6-.46-11.83-1.88-17.5-1.42-5.66-4.17-10.29-8.25-13.88-4.09-3.58-9.88-5.38-17.38-5.38-8,0-15.25,1.54-21.75,4.62-6.5,3.09-11.92,6.21-16.25,9.38l-5.75-9.5c3-2,6.83-4.21,11.5-6.62,4.66-2.41,9.83-4.5,15.5-6.25,5.66-1.75,11.75-2.62,18.25-2.62,9.66,0,17.33,2.09,23,6.25,5.66,4.17,9.75,9.79,12.25,16.88,2.5,7.09,3.75,15.04,3.75,23.88v76.25h-10.75l-1.5-15.5h-.5c-6,5-12.59,9.34-19.75,13-7.17,3.66-14.67,5.5-22.5,5.5v-.02h0ZM206.76,171.5c6.83,0,13.33-1.58,19.5-4.75,6.16-3.16,12.75-7.75,19.75-13.75v-39.5c-15.84,1.84-28.42,4.29-37.75,7.38-9.34,3.09-16,6.92-20,11.5-4,4.59-6,9.96-6,16.12,0,8.34,2.41,14.25,7.25,17.75,4.83,3.5,10.58,5.25,17.25,5.25Z"/>
            <path class="cls-1" d="M341,182.5c-15,0-27.04-5.46-36.12-16.38-9.09-10.91-13.62-26.46-13.62-46.62,0-13,2.46-24.21,7.38-33.62,4.91-9.41,11.41-16.71,19.5-21.88,8.08-5.16,16.88-7.75,26.38-7.75,7.16,0,13.46,1.25,18.88,3.75,5.41,2.5,11.04,6.09,16.88,10.75l-.75-21.75V0h13l.21,180.13-10.96-.63-1.5-15.25h-.5c-4.84,4.84-10.5,9.09-17,12.75s-13.75,5.5-21.75,5.5h-.03ZM343.25,171.25c6.5,0,12.66-1.62,18.5-4.88,5.83-3.25,11.75-8.04,17.75-14.38v-69.75c-6-5.33-11.71-9.12-17.12-11.38-5.42-2.25-11.04-3.38-16.88-3.38-7.67,0-14.54,2.25-20.62,6.75-6.09,4.5-10.96,10.71-14.62,18.62-3.67,7.92-5.5,16.79-5.5,26.62,0,15.67,3.33,28.21,10,37.62,6.66,9.42,16.16,14.12,28.5,14.12v.04h-.01Z"/>
          </g>
          <g>
            <path class="cls-1" d="M156.72,333.2c-9.67,0-18.62-2.46-26.88-7.38s-14.88-12.08-19.88-21.5c-5-9.41-7.5-20.79-7.5-34.12s2.5-24.75,7.5-34.25,11.62-16.71,19.88-21.62c8.25-4.91,17.21-7.38,26.88-7.38s18.62,2.46,26.88,7.38c8.25,4.92,14.91,12.12,20,21.62,5.08,9.5,7.62,20.92,7.62,34.25s-2.54,24.71-7.62,34.12c-5.09,9.42-11.75,16.59-20,21.5s-17.21,7.38-26.88,7.38ZM156.72,321.95c7.83,0,14.88-2.16,21.12-6.5,6.25-4.33,11.12-10.38,14.62-18.12s5.25-16.79,5.25-27.12-1.75-19.41-5.25-27.25c-3.5-7.83-8.38-13.96-14.62-18.38-6.25-4.41-13.29-6.62-21.12-6.62s-14.84,2.21-21,6.62c-6.17,4.42-11.04,10.54-14.62,18.38-3.59,7.84-5.38,16.92-5.38,27.25s1.79,19.38,5.38,27.12c3.58,7.75,8.46,13.79,14.62,18.12,6.16,4.34,13.16,6.5,21,6.5Z"/>
            <path class="cls-1" d="M246.22,330.2v-120.25h10.75l1.5,18.25h.5c6.16-6,12.5-11.04,19-15.12s13.91-6.12,22.25-6.12c12.5,0,21.71,3.84,27.62,11.5,5.91,7.67,8.88,19.25,8.88,34.75v77h-13v-75.25c0-12.5-2.04-21.75-6.12-27.75-4.09-6-10.88-9-20.38-9-7,0-13.29,1.84-18.88,5.5-5.59,3.67-11.96,9.17-19.12,16.5v90h-13Z"/>
            <path class="cls-1" d="M396.06,332.01c-3.5,0-6.46-.75-8.88-2.25s-4.21-3.79-5.38-6.88c-1.17-3.08-1.75-6.96-1.75-11.62l.2-147,12.46,15.88.34,132.62c0,2.84.5,4.88,1.5,6.12s2.25,1.88,3.75,1.88c.5,0,1.08-.04,1.75-.12.66-.08,1.58-.21,2.75-.38l2,10.25c-1.17.33-2.42.66-3.75,1-1.34.33-3,.5-5,.5h.01Z"/>
            <path class="cls-1" d="M439.71,330.2v-120.25h13v120.25h-13Z"/>
            <path class="cls-1" d="M497.71,330.2v-120.25h10.75l1.5,18.25h.5c6.16-6,12.5-11.04,19-15.12s13.91-6.12,22.25-6.12c12.5,0,21.71,3.84,27.62,11.5,5.91,7.67,8.88,19.25,8.88,34.75v77h-13v-75.25c0-12.5-2.04-21.75-6.12-27.75-4.09-6-10.88-9-20.38-9-7,0-13.29,1.84-18.88,5.5-5.59,3.67-11.96,9.17-19.12,16.5v90h-13,0Z"/>
            <path class="cls-1" d="M677.46,333.2c-10.34,0-19.75-2.5-28.25-7.5s-15.25-12.21-20.25-21.62-7.5-20.71-7.5-33.88,2.5-24.25,7.5-33.75,11.54-16.79,19.62-21.88c8.08-5.08,16.62-7.62,25.62-7.62,9.66,0,17.96,2.21,24.88,6.62,6.91,4.42,12.25,10.79,16,19.12,3.75,8.34,5.62,18.34,5.62,30,0,1.5-.04,3.09-.12,4.75-.09,1.67-.29,3.25-.62,4.75h-88.75v-10.25h77.5c0-14.66-3.09-25.71-9.25-33.12-6.17-7.41-14.59-11.12-25.25-11.12-6.5,0-12.84,1.88-19,5.62-6.17,3.75-11.25,9.5-15.25,17.25s-6,17.62-6,29.62c0,11.17,2.04,20.59,6.12,28.25,4.08,7.67,9.46,13.59,16.12,17.75,6.66,4.17,14.16,6.25,22.5,6.25,6.5,0,12.33-1,17.5-3,5.16-2,10-4.5,14.5-7.5l5,9.25c-4.84,3-10.25,5.75-16.25,8.25s-13.34,3.75-22,3.75h.01Z"/>
          </g>
        </g>
        <g>
          <circle class="cls-1" cx="446.08" cy="163.43" r="18.85"/>
          <circle class="cls-2" cx="446.31" cy="163.69" r="8.73"/>
        </g>
      </g>
    </g>
  </g>
</svg>